<svg width="195" height="216" viewBox="0 0 195 216" fill="none" xmlns="http://www.w3.org/2000/svg">
<path d="M73.7046 199.6H88.7778V169.4H77.8916L1.22308 86.0997C1.22308 86.0997 -2.87087 76.2997 3.92137 70.9997C10.8067 65.8997 16.9476 69.2997 16.9476 69.2997L89.0569 146.2H134.835L190.754 165.8C199.408 168.7 194.383 194.5 179.775 188.8L130.462 169.2H124.507V199.6H142.837V215.3H73.6116V199.6H73.7046Z" fill="#AFB3BE"/>
<path d="M187.684 133.8C200.989 140.7 189.917 161.8 176.426 154.7L145.814 138.7C87.5682 138.7 100.036 146.7 60.1201 104.7C55.3748 99.7004 55.1887 91.5004 59.841 86.4004C64.4932 81.3004 72.1228 81.3004 76.8681 86.3004L103.758 114.5L144.977 114.2C152.048 112.9 179.682 129.7 187.684 133.8ZM48.3965 42.4004C59.3758 42.4004 68.1219 51.8004 68.1219 63.6004C68.1219 75.3004 59.3758 84.7004 48.3965 84.7004C37.5103 84.7004 28.7642 75.3004 28.7642 63.6004C28.7642 51.8004 37.6034 42.4004 48.3965 42.4004Z" fill="#AFB3BE"/>
<path d="M131.206 0H85.2419L77.2401 17.3C70.5409 13.6 63.8417 14.7 57.2356 19.2L85.2419 40.1C88.4985 34 87.5681 27.5 82.8228 20.4L88.7776 8.1H126.368V100.6C126.368 103.4 128.601 105.7 131.299 105.7C133.997 105.7 136.044 103.3 136.044 100.6V93.9H192.987C193.918 93.9 194.569 93.1 194.569 92.1V76.1C194.569 75.1 193.918 74.4 192.987 74.4H187.032V70.4C187.032 69.6 186.381 68.9 185.73 68.9H181.822C181.078 68.9 180.519 69.6 180.519 70.4V74.4H177.542V70.4C177.542 69.6 176.984 68.9 176.239 68.9H172.331C171.68 68.9 171.029 69.6 171.029 70.4V74.4H168.051V70.4C168.051 69.6 167.493 68.9 166.749 68.9H162.841C162.19 68.9 161.538 69.6 161.538 70.4V74.4H158.561V70.4C158.561 69.6 158.003 68.9 157.258 68.9H153.536C152.792 68.9 152.141 69.6 152.141 70.4V74.4H149.256V70.4C149.256 69.6 148.605 68.9 147.861 68.9H144.139C143.395 68.9 142.743 69.6 142.743 70.4V74.4H135.765V5.2C135.951 2.3 133.904 0 131.206 0Z" fill="#AFB3BE"/>
</svg>
