<svg width="121" height="123" viewBox="0 0 121 123" fill="none" xmlns="http://www.w3.org/2000/svg">
<path fill-rule="evenodd" clip-rule="evenodd" d="M42.98 77.0105C48.62 93.6105 72.19 94.2205 77.49 77.0105C83.73 82.6205 102.19 83.7505 109.06 87.5805C111.23 88.7905 113.2 90.3305 114.77 92.4205C117.16 95.5805 118.63 99.7105 119.03 104.96L120.46 116.72C120.11 120.43 118.01 122.57 113.86 122.88H6.6C2.46 122.56 0.35 120.43 0 116.72L1.43 104.96C1.83 99.7205 3.3 95.5905 5.69 92.4205C7.27 90.3305 9.23 88.7905 11.4 87.5805C18.28 83.7505 36.74 82.6305 42.98 77.0105ZM91.73 94.7205H95.34C96.02 94.7205 96.57 95.2705 96.57 95.9505V101.34H101.96C102.63 101.34 103.19 101.89 103.19 102.57V106.18C103.19 106.85 102.64 107.41 101.96 107.41H96.57V112.8C96.57 113.47 96.02 114.03 95.34 114.03H91.73C91.06 114.03 90.5 113.48 90.5 112.8V107.41H85.11C84.44 107.41 83.88 106.86 83.88 106.18V102.57C83.88 101.9 84.43 101.34 85.11 101.34H90.5V95.9505C90.5 95.2705 91.05 94.7205 91.73 94.7205ZM38.66 36.8205C37.48 36.8705 36.58 37.1105 35.97 37.5205C35.62 37.7505 35.36 38.0505 35.2 38.4105C35.02 38.8105 34.93 39.2905 34.95 39.8405C35 41.4605 35.85 43.5905 37.49 46.0305L37.51 46.0705L42.85 54.5605C44.99 57.9605 47.23 61.4305 50.02 63.9805C52.7 66.4305 55.95 68.0905 60.25 68.1005C64.91 68.1105 68.31 66.3905 71.08 63.8005C73.96 61.1105 76.22 57.4205 78.46 53.7305L84.47 43.8305C85.59 41.2705 86 39.5605 85.74 38.5605C85.59 37.9605 84.93 37.6705 83.8 37.6105C83.56 37.6005 83.32 37.6005 83.07 37.6005C82.8 37.6105 82.52 37.6305 82.23 37.6505C82.07 37.6605 81.91 37.6505 81.77 37.6205C81.24 37.6505 80.68 37.6105 80.12 37.5305L82.18 28.4205C66.9 30.8305 55.48 19.4805 39.33 26.1505L40.5 36.9005C39.84 36.9305 39.23 36.9105 38.66 36.8205ZM85.86 34.9105C87.34 35.3605 88.29 36.3005 88.68 37.8205C89.11 39.5005 88.64 41.8705 87.22 45.1105C87.19 45.1705 87.16 45.2305 87.13 45.2805L81.04 55.3005C78.7 59.1605 76.32 63.0305 73.14 66.0005C69.85 69.0805 65.8 71.1305 60.25 71.1205C55.07 71.1105 51.18 69.1305 47.98 66.2105C44.89 63.3905 42.53 59.7405 40.29 56.1805L34.95 47.6905C33 44.7805 31.98 42.1205 31.92 39.9405C31.89 38.9105 32.07 37.9805 32.44 37.1605C32.84 36.3005 33.45 35.5805 34.27 35.0305C34.66 34.7705 35.09 34.5505 35.56 34.3705C35.21 29.7705 35.08 23.9705 35.31 19.1105C35.43 17.9605 35.65 16.8105 35.97 15.6505C37.33 10.7805 40.75 6.86046 44.99 4.16046C46.48 3.21046 48.12 2.42046 49.84 1.80046C60.1 -1.90954 73.69 0.110463 80.97 7.98046C83.93 11.1905 85.79 15.4405 86.19 21.0605L85.86 34.9105Z" fill="#AFB3BE"/>
</svg>
